<?xml version="1.0" encoding="UTF-8" standalone="no"?>
<!-- Created with Inkscape (http://www.inkscape.org/) -->

<svg
   width="199.0607mm"
   height="83.261063mm"
   viewBox="0 0 199.0607 83.261063"
   version="1.1"
   id="svg1"
   xml:space="preserve"
   xmlns="http://www.w3.org/2000/svg"
   xmlns:svg="http://www.w3.org/2000/svg"><defs
     id="defs1" /><g
     id="layer1"
     style="display:inline"
     transform="translate(-10.392986,-84.587369)"><path
       id="text1"
       style="font-size:44.3263px;font-family:'Hiragino Kaku Gothic StdN';-inkscape-font-specification:'Hiragino Kaku Gothic StdN';text-align:justify;fill:#000000;stroke-width:1.57061;stroke-opacity:0"
       d="m 27.10411,129.15157 c -7.22518,0 -10.549744,2.70397 -10.549744,8.55503 v 2.0836 H 15.35754 c -1.684398,0 -3.72342,-0.13327 -4.964555,-0.31058 v 7.44709 c 1.507093,-0.22163 2.881221,-0.31057 4.964555,-0.31057 h 1.196826 v 13.51959 c 0,2.8812 -0.08854,4.52114 -0.3545,6.69313 h 9.220109 c -0.265958,-2.17199 -0.355017,-3.63462 -0.355017,-6.69313 v -13.51959 h 1.374593 c 2.48227,0 3.944661,0.0889 5.806364,0.31057 v -7.44709 c -1.640072,0.17731 -4.033545,0.31058 -5.895248,0.31058 h -1.285709 v -1.10846 c 0,-2.30497 0.842299,-3.19154 3.014286,-3.19154 1.684398,0 3.014249,0.35492 4.388363,1.10846 l 1.374076,-6.51588 c -2.437944,-0.66489 -4.255303,-0.93121 -6.737573,-0.93121 z m 113.01531,1.1467 c -6.92173,2.50488 -11.10888,9.01194 -11.10888,18.04696 0,11.74646 7.00358,19.32595 17.86351,19.32595 8.89759,0 15.30169,-5.30223 17.2651,-13.73973 -3.17561,-0.034 -6.20063,-0.66988 -8.96793,-1.80144 -0.98281,4.94385 -3.9206,7.87291 -8.25325,7.87291 -5.4078,0 -8.73228,-4.47695 -8.73228,-11.70213 0,-4.46183 1.29997,-7.84916 3.59565,-9.76168 -1.00344,-2.56089 -1.5846,-5.33515 -1.66192,-8.24084 z m -90.142805,8.47235 c -8.953904,0 -14.627531,5.62947 -14.627531,14.49473 0,8.90957 5.673512,14.58308 14.58309,14.58308 8.820925,0 14.671972,-5.85104 14.671972,-14.67197 0,-8.7766 -5.673627,-14.40584 -14.627531,-14.40584 z m 62.766185,0.0884 c -7.40248,0 -11.87937,3.23588 -11.87937,8.55503 0,1.5071 0.39872,3.01431 1.10794,4.21112 0.8422,1.32978 2.30515,2.34922 4.43281,3.14709 1.46276,0.48759 3.19153,0.93087 6.56031,1.59577 2.43795,0.48759 3.01384,0.66496 3.6344,1.01957 0.62057,0.35461 0.97514,0.93088 0.97514,1.59577 0,1.37412 -1.5071,2.12752 -4.16667,2.12752 -2.96986,0 -4.47684,-1.01938 -4.92011,-3.32434 l -8.776719,0.97513 c 0.443259,2.12766 0.886489,3.19167 1.773019,4.4328 2.12766,2.92554 6.07309,4.43229 11.65819,4.43229 4.74291,0 8.37764,-1.1078 10.5053,-3.23546 1.46277,-1.41844 2.26033,-3.54647 2.26033,-5.89576 0,-3.19149 -1.37383,-5.36306 -4.25504,-6.7815 -1.55142,-0.79787 -2.92586,-1.19719 -7.26984,-2.12804 -4.38829,-0.97517 -5.31904,-1.41802 -5.31904,-2.61482 0,-1.15249 1.41831,-1.90635 3.72327,-1.90635 2.39362,0 3.50218,0.79797 3.72381,2.61535 l 8.55503,-0.9307 c -0.70922,-2.48227 -1.41871,-3.76797 -2.88148,-5.05343 -2.08333,-1.90603 -5.23029,-2.83704 -9.44128,-2.83704 z m -26.640224,0.26613 c -3.634753,0 -6.338672,1.10816 -9.131226,3.76773 0,-0.31028 0.04444,-0.97531 0.04444,-1.24127 v -1.86138 h -8.821167 c 0.265957,1.77305 0.3545,3.63462 0.3545,6.69313 v 13.6524 c 0,2.74822 -0.08854,4.60979 -0.3545,6.69313 h 9.175667 c -0.265957,-2.30497 -0.3545,-4.16654 -0.3545,-6.69313 v -8.95398 c 1.906029,-3.10284 4.121977,-4.65398 6.604248,-4.65398 1.329788,0 2.349678,0.44288 2.925919,1.24075 0.531915,0.75355 0.709001,1.50737 0.709001,3.28042 v 9.08679 c 0,2.7039 -0.08854,4.56547 -0.3545,6.69313 h 9.219592 c -0.221631,-1.8617 -0.3545,-4.07777 -0.3545,-6.64869 v -11.12594 c 0,-3.50177 -0.753411,-5.67352 -2.526461,-7.44657 -1.640072,-1.64007 -4.078004,-2.48254 -7.136515,-2.48254 z m -36.081519,6.29419 c 3.767732,0 6.028056,2.92594 6.028056,7.89048 0,4.92021 -2.216113,7.80107 -6.072498,7.80107 -3.856384,0 -6.161381,-2.96974 -6.161381,-7.88996 0,-4.87588 2.305112,-7.80159 6.205823,-7.80159 z m 147.382723,5.22087 c -2.77762,1.61854 -5.90776,2.70018 -9.25318,3.10886 0.60309,0.6208 0.96635,1.48045 0.96635,2.44171 0,2.48227 -2.03926,3.98942 -5.45238,3.98942 -2.26064,0 -4.12242,-0.75381 -5.18625,-2.0836 -0.66489,-0.88652 -0.97508,-1.68415 -1.15238,-3.2799 l -9.2196,0.88677 c 0.31029,2.03901 0.53188,3.0584 0.97514,4.12223 0.93085,2.52659 2.57099,4.43242 4.7873,5.67355 2.39362,1.37412 6.11694,2.17196 9.88467,2.17196 5.18617,0 9.08677,-1.28545 11.65769,-3.76772 2.03901,-1.99469 3.10265,-4.83163 3.10265,-8.1561 0,-1.95435 -0.37701,-3.64721 -1.11001,-5.10718 z" /><path
       id="rect4"
       style="fill:#ff2a7f;stroke-width:0.4;stroke-opacity:0"
       d="m 164.40583,84.58737 c -13.46384,0 -24.30291,10.83908 -24.30291,24.30291 v 20.74498 c 0,0.22242 0.0106,0.44206 0.0165,0.66301 2.04327,-0.73943 4.31329,-1.1467 6.79856,-1.1467 10.90426,0 17.8635,7.44686 17.8635,19.06034 0,2.03561 -0.22887,3.94275 -0.64232,5.71954 0.0892,9.6e-4 0.17719,0.007 0.26664,0.007 h 20.74498 c 1.01699,0 2.01632,-0.069 2.99982,-0.18913 -0.25903,-0.26664 -0.54929,-0.50113 -0.89555,-0.66094 -0.93085,-0.44327 -2.03876,-0.75363 -6.64869,-1.81747 -4.07802,-0.88652 -5.49645,-1.41841 -7.13652,-2.5709 -2.79255,-1.95035 -4.29999,-4.92016 -4.29999,-8.51059 0,-6.82624 5.49683,-11.12594 14.2291,-11.12594 5.62944,0 9.92863,1.72846 12.32225,5.05293 1.10815,1.46276 1.64016,2.79245 2.2164,5.31905 l -9.39684,1.01958 c -0.53192,-2.88121 -2.12803,-4.07779 -5.49683,-4.07779 -2.7039,0 -4.69842,1.46259 -4.69842,3.5016 0,1.24113 0.66516,2.17214 2.0836,2.83703 0.88652,0.39894 0.88644,0.39913 6.11694,1.46296 3.36879,0.70922 5.49656,1.46263 7.18095,2.52646 1.662,1.03875 2.88028,2.34872 3.67678,3.93516 7.21637,-4.20502 12.04991,-12.01741 12.04991,-21.00492 v -20.74498 c 0,-13.46383 -10.83908,-24.30291 -24.30291,-24.30291 z M 146.918,136.77591 c -2.02679,0 -3.76047,0.61672 -5.13663,1.7632 2.41612,6.16625 7.2685,11.08786 13.38988,13.5909 0.23383,-1.17624 0.39067,-2.43206 0.39067,-3.82922 0,-7.18085 -3.28044,-11.52488 -8.64392,-11.52488 z" /></g></svg>
